<svg xmlns="http://www.w3.org/2000/svg" viewBox="0 0 860 1514" width="860" height="1514" font-family="ui-sans-serif,-apple-system,Segoe UI,Roboto,sans-serif">
<defs>
<linearGradient id="g_entry" x1="0" y1="0" x2="0" y2="1"><stop offset="0" stop-color="#34d399"/><stop offset="1" stop-color="#059669"/></linearGradient>
<linearGradient id="g_exit" x1="0" y1="0" x2="0" y2="1"><stop offset="0" stop-color="#fb7185"/><stop offset="1" stop-color="#e11d48"/></linearGradient>
<linearGradient id="g_disp" x1="0" y1="0" x2="0" y2="1"><stop offset="0" stop-color="#fbbf24"/><stop offset="1" stop-color="#f59e0b"/></linearGradient>
<linearGradient id="g_inject" x1="0" y1="0" x2="0" y2="1"><stop offset="0" stop-color="#22d3ee"/><stop offset="1" stop-color="#0891b2"/></linearGradient>
<linearGradient id="g_keep" x1="0" y1="0" x2="0" y2="1"><stop offset="0" stop-color="#818cf8"/><stop offset="1" stop-color="#6366f1"/></linearGradient>
<marker id="arw" viewBox="0 0 10 10" refX="9" refY="5" markerWidth="7" markerHeight="7" orient="auto-start-reverse"><path d="M0,0 L10,5 L0,10 z" fill="var(--edge)"/></marker>
<marker id="arwb" viewBox="0 0 10 10" refX="9" refY="5" markerWidth="7" markerHeight="7" orient="auto-start-reverse"><path d="M0,0 L10,5 L0,10 z" fill="#f59e0b"/></marker>
<marker id="arwbig" viewBox="0 0 12 12" refX="10" refY="6" markerWidth="9" markerHeight="9" orient="auto"><path d="M0,0 L12,6 L0,12 z" fill="#8b5cf6"/></marker>
<filter id="sh" x="-20%" y="-20%" width="140%" height="140%"><feDropShadow dx="0" dy="2" stdDeviation="2.4" flood-opacity="0.28"/></filter>
</defs>
<style>:root{--bg:#0d1117;--edge:#8b98a5;--fg:#e6edf3;--sub:#93a1b0;--pl:#c9d4e0;}@media (prefers-color-scheme: light){:root{--bg:#ffffff;--edge:#94a3b8;--fg:#1e293b;--sub:#64748b;--pl:#334155;}}:root[data-theme='light']{--bg:#ffffff;--edge:#94a3b8;--fg:#1e293b;--sub:#64748b;--pl:#334155;}:root[data-theme='dark']{--bg:#0d1117;--edge:#8b98a5;--fg:#e6edf3;--sub:#93a1b0;--pl:#c9d4e0;}.bt{font-weight:700;fill:#fff;}.bs{fill:#eef2ff;opacity:.82;}.ttl{fill:var(--fg);font-weight:800;}.sub{fill:var(--sub);}.lg{fill:var(--sub);}.pl{fill:var(--pl);font-weight:700;}</style>
<rect x="0" y="0" width="860" height="1514" rx="14" fill="var(--bg)"/>
<text class="ttl" x="40" y="44" font-size="25">Before — original CFG</text>
<text class="sub" x="40" y="69" font-size="14.5">obf_target · 18 blocks</text>
<rect x="752" y="86" width="12" height="12" rx="3" fill="#fb7185"/>
<text class="lg" x="769" y="96" font-size="12.5">return</text>
<rect x="658" y="86" width="12" height="12" rx="3" fill="#fbbf24"/>
<text class="lg" x="675" y="96" font-size="12.5">dispatcher</text>
<rect x="578" y="86" width="12" height="12" rx="3" fill="#22d3ee"/>
<text class="lg" x="595" y="96" font-size="12.5">injected</text>
<rect x="497" y="86" width="12" height="12" rx="3" fill="#818cf8"/>
<text class="lg" x="514" y="96" font-size="12.5">original</text>
<rect x="436" y="86" width="12" height="12" rx="3" fill="#34d399"/>
<text class="lg" x="453" y="96" font-size="12.5">entry</text>
<line x1="430.0" y1="154.0" x2="430.0" y2="228.0" stroke="var(--edge)" stroke-width="1.5" stroke-opacity="0.72" marker-end="url(#arw)"/>
<line x1="430.0" y1="154.0" x2="430.0" y2="348.0" stroke="var(--edge)" stroke-width="1.5" stroke-opacity="0.72" marker-end="url(#arw)"/>
<line x1="430.0" y1="274.0" x2="430.0" y2="348.0" stroke="var(--edge)" stroke-width="1.5" stroke-opacity="0.72" marker-end="url(#arw)"/>
<line x1="430.0" y1="394.0" x2="430.0" y2="468.0" stroke="var(--edge)" stroke-width="1.5" stroke-opacity="0.72" marker-end="url(#arw)"/>
<line x1="430.0" y1="394.0" x2="430.0" y2="588.0" stroke="var(--edge)" stroke-width="1.5" stroke-opacity="0.72" marker-end="url(#arw)"/>
<line x1="430.0" y1="514.0" x2="430.0" y2="588.0" stroke="var(--edge)" stroke-width="1.5" stroke-opacity="0.72" marker-end="url(#arw)"/>
<line x1="430.0" y1="634.0" x2="430.0" y2="708.0" stroke="var(--edge)" stroke-width="1.5" stroke-opacity="0.72" marker-end="url(#arw)"/>
<path d="M430.0,754.0 C430.0,791.0 470.5,816.2 511.0,828.0" fill="none" stroke="var(--edge)" stroke-width="1.5" stroke-opacity="0.72" marker-end="url(#arw)"/>
<path d="M430.0,754.0 C430.0,791.0 389.5,816.2 349.0,828.0" fill="none" stroke="var(--edge)" stroke-width="1.5" stroke-opacity="0.72" marker-end="url(#arw)"/>
<path d="M511.0,874.0 C511.0,911.0 632.5,936.2 754.0,948.0" fill="none" stroke="var(--edge)" stroke-width="1.5" stroke-opacity="0.72" marker-end="url(#arw)"/>
<line x1="511.0" y1="874.0" x2="511.0" y2="1068.0" stroke="var(--edge)" stroke-width="1.5" stroke-opacity="0.72" marker-end="url(#arw)"/>
<path d="M754.0,994.0 C754.0,1031.0 632.5,1056.2 511.0,1068.0" fill="none" stroke="var(--edge)" stroke-width="1.5" stroke-opacity="0.72" marker-end="url(#arw)"/>
<path d="M511.0,1114.0 C511.0,1151.0 470.5,1176.2 430.0,1188.0" fill="none" stroke="var(--edge)" stroke-width="1.5" stroke-opacity="0.72" marker-end="url(#arw)"/>
<path d="M511.0,1114.0 C511.0,1211.0 470.5,1277.0 430.0,1308.0" fill="none" stroke="var(--edge)" stroke-width="1.5" stroke-opacity="0.72" marker-end="url(#arw)"/>
<line x1="430.0" y1="1234.0" x2="430.0" y2="1308.0" stroke="var(--edge)" stroke-width="1.5" stroke-opacity="0.72" marker-end="url(#arw)"/>
<line x1="430.0" y1="1354.0" x2="430.0" y2="1428.0" stroke="var(--edge)" stroke-width="1.5" stroke-opacity="0.72" marker-end="url(#arw)"/>
<path d="M349.0,874.0 C349.0,911.0 470.5,936.2 592.0,948.0" fill="none" stroke="var(--edge)" stroke-width="1.5" stroke-opacity="0.72" marker-end="url(#arw)"/>
<path d="M349.0,874.0 C349.0,911.0 227.5,936.2 106.0,948.0" fill="none" stroke="var(--edge)" stroke-width="1.5" stroke-opacity="0.72" marker-end="url(#arw)"/>
<path d="M349.0,874.0 C349.0,911.0 308.5,936.2 268.0,948.0" fill="none" stroke="var(--edge)" stroke-width="1.5" stroke-opacity="0.72" marker-end="url(#arw)"/>
<path d="M349.0,874.0 C349.0,911.0 389.5,936.2 430.0,948.0" fill="none" stroke="var(--edge)" stroke-width="1.5" stroke-opacity="0.72" marker-end="url(#arw)"/>
<path d="M106.0,994.0 C106.0,1031.0 227.5,1056.2 349.0,1068.0" fill="none" stroke="var(--edge)" stroke-width="1.5" stroke-opacity="0.72" marker-end="url(#arw)"/>
<path d="M268.0,994.0 C268.0,1031.0 308.5,1056.2 349.0,1068.0" fill="none" stroke="var(--edge)" stroke-width="1.5" stroke-opacity="0.72" marker-end="url(#arw)"/>
<path d="M430.0,994.0 C430.0,1031.0 389.5,1056.2 349.0,1068.0" fill="none" stroke="var(--edge)" stroke-width="1.5" stroke-opacity="0.72" marker-end="url(#arw)"/>
<path d="M592.0,994.0 C592.0,1031.0 470.5,1056.2 349.0,1068.0" fill="none" stroke="var(--edge)" stroke-width="1.5" stroke-opacity="0.72" marker-end="url(#arw)"/>
<path d="M430.0,1428.0 C488.0,1428.0 488.0,754.0 430.0,754.0" fill="none" stroke="#f59e0b" stroke-width="1.5" stroke-opacity="0.85" stroke-dasharray="5 3" marker-end="url(#arwb)"/>
<g filter="url(#sh)"><rect x="364.0" y="108.0" width="132" height="46" rx="11" fill="url(#g_entry)" stroke="#065f46" stroke-width="1.4"/><text class="bt" x="430.0" y="125.0" text-anchor="middle" font-size="12.5" dominant-baseline="middle">entry</text>
<text class="bs" x="430.0" y="145.0" text-anchor="middle" font-size="10">insts 44</text>
</g>
<g filter="url(#sh)"><rect x="364.0" y="228.0" width="132" height="46" rx="11" fill="url(#g_keep)" stroke="#3730a3" stroke-width="1.4"/><text class="bt" x="430.0" y="245.0" text-anchor="middle" font-size="12.5" dominant-baseline="middle">if.then</text>
<text class="bs" x="430.0" y="265.0" text-anchor="middle" font-size="10">insts 4</text>
</g>
<g filter="url(#sh)"><rect x="364.0" y="348.0" width="132" height="46" rx="11" fill="url(#g_keep)" stroke="#3730a3" stroke-width="1.4"/><text class="bt" x="430.0" y="365.0" text-anchor="middle" font-size="12.5" dominant-baseline="middle">if.end</text>
<text class="bs" x="430.0" y="385.0" text-anchor="middle" font-size="10">insts 7</text>
</g>
<g filter="url(#sh)"><rect x="364.0" y="468.0" width="132" height="46" rx="11" fill="url(#g_keep)" stroke="#3730a3" stroke-width="1.4"/><text class="bt" x="430.0" y="485.0" text-anchor="middle" font-size="12.5" dominant-baseline="middle">if.then11</text>
<text class="bs" x="430.0" y="505.0" text-anchor="middle" font-size="10">insts 5</text>
</g>
<g filter="url(#sh)"><rect x="364.0" y="588.0" width="132" height="46" rx="11" fill="url(#g_keep)" stroke="#3730a3" stroke-width="1.4"/><text class="bt" x="430.0" y="605.0" text-anchor="middle" font-size="12.5" dominant-baseline="middle">if.end12</text>
<text class="bs" x="430.0" y="625.0" text-anchor="middle" font-size="10">insts 16</text>
</g>
<g filter="url(#sh)"><rect x="364.0" y="708.0" width="132" height="46" rx="11" fill="url(#g_keep)" stroke="#3730a3" stroke-width="1.4"/><text class="bt" x="430.0" y="725.0" text-anchor="middle" font-size="12.5" dominant-baseline="middle">for.cond</text>
<text class="bs" x="430.0" y="745.0" text-anchor="middle" font-size="10">insts 3</text>
</g>
<g filter="url(#sh)"><rect x="445.0" y="828.0" width="132" height="46" rx="11" fill="url(#g_keep)" stroke="#3730a3" stroke-width="1.4"/><text class="bt" x="511.0" y="845.0" text-anchor="middle" font-size="12.5" dominant-baseline="middle">for.body</text>
<text class="bs" x="511.0" y="865.0" text-anchor="middle" font-size="10">insts 12</text>
</g>
<g filter="url(#sh)"><rect x="688.0" y="948.0" width="132" height="46" rx="11" fill="url(#g_keep)" stroke="#3730a3" stroke-width="1.4"/><text class="bt" x="754.0" y="965.0" text-anchor="middle" font-size="12.5" dominant-baseline="middle">if.then24</text>
<text class="bs" x="754.0" y="985.0" text-anchor="middle" font-size="10">insts 5</text>
</g>
<g filter="url(#sh)"><rect x="445.0" y="1068.0" width="132" height="46" rx="11" fill="url(#g_keep)" stroke="#3730a3" stroke-width="1.4"/><text class="bt" x="511.0" y="1085.0" text-anchor="middle" font-size="12.5" dominant-baseline="middle">if.end26</text>
<text class="bs" x="511.0" y="1105.0" text-anchor="middle" font-size="10">insts 7</text>
</g>
<g filter="url(#sh)"><rect x="364.0" y="1188.0" width="132" height="46" rx="11" fill="url(#g_keep)" stroke="#3730a3" stroke-width="1.4"/><text class="bt" x="430.0" y="1205.0" text-anchor="middle" font-size="12.5" dominant-baseline="middle">if.then30</text>
<text class="bs" x="430.0" y="1225.0" text-anchor="middle" font-size="10">insts 5</text>
</g>
<g filter="url(#sh)"><rect x="364.0" y="1308.0" width="132" height="46" rx="11" fill="url(#g_keep)" stroke="#3730a3" stroke-width="1.4"/><text class="bt" x="430.0" y="1325.0" text-anchor="middle" font-size="12.5" dominant-baseline="middle">if.end32</text>
<text class="bs" x="430.0" y="1345.0" text-anchor="middle" font-size="10">insts 1</text>
</g>
<g filter="url(#sh)"><rect x="364.0" y="1428.0" width="132" height="46" rx="11" fill="url(#g_keep)" stroke="#3730a3" stroke-width="1.4"/><text class="bt" x="430.0" y="1445.0" text-anchor="middle" font-size="12.5" dominant-baseline="middle">for.inc</text>
<text class="bs" x="430.0" y="1465.0" text-anchor="middle" font-size="10">insts 4</text>
</g>
<g filter="url(#sh)"><rect x="276.0" y="826.0" width="146" height="50" rx="11" fill="url(#g_disp)" stroke="#92400e" stroke-width="1.4"/><text class="bt" x="349.0" y="845.0" text-anchor="middle" font-size="12.5" dominant-baseline="middle">for.end</text>
<text class="bs" x="349.0" y="867.0" text-anchor="middle" font-size="10">insts 24</text>
</g>
<g filter="url(#sh)"><rect x="40.0" y="948.0" width="132" height="46" rx="11" fill="url(#g_keep)" stroke="#3730a3" stroke-width="1.4"/><text class="bt" x="106.0" y="965.0" text-anchor="middle" font-size="12.5" dominant-baseline="middle">sw.bb</text>
<text class="bs" x="106.0" y="985.0" text-anchor="middle" font-size="10">insts 4</text>
</g>
<g filter="url(#sh)"><rect x="202.0" y="948.0" width="132" height="46" rx="11" fill="url(#g_keep)" stroke="#3730a3" stroke-width="1.4"/><text class="bt" x="268.0" y="965.0" text-anchor="middle" font-size="12.5" dominant-baseline="middle">sw.bb45</text>
<text class="bs" x="268.0" y="985.0" text-anchor="middle" font-size="10">insts 4</text>
</g>
<g filter="url(#sh)"><rect x="364.0" y="948.0" width="132" height="46" rx="11" fill="url(#g_keep)" stroke="#3730a3" stroke-width="1.4"/><text class="bt" x="430.0" y="965.0" text-anchor="middle" font-size="12.5" dominant-baseline="middle">sw.bb47</text>
<text class="bs" x="430.0" y="985.0" text-anchor="middle" font-size="10">insts 4</text>
</g>
<g filter="url(#sh)"><rect x="526.0" y="948.0" width="132" height="46" rx="11" fill="url(#g_keep)" stroke="#3730a3" stroke-width="1.4"/><text class="bt" x="592.0" y="965.0" text-anchor="middle" font-size="12.5" dominant-baseline="middle">sw.default</text>
<text class="bs" x="592.0" y="985.0" text-anchor="middle" font-size="10">insts 4</text>
</g>
<g filter="url(#sh)"><rect x="283.0" y="1068.0" width="132" height="46" rx="11" fill="url(#g_exit)" stroke="#881337" stroke-width="1.4"/><text class="bt" x="349.0" y="1085.0" text-anchor="middle" font-size="12.5" dominant-baseline="middle">sw.epilog</text>
<text class="bs" x="349.0" y="1105.0" text-anchor="middle" font-size="10">insts 2</text>
</g>
</svg>