<svg xmlns="http://www.w3.org/2000/svg" viewBox="0 0 760 218" font-family="ui-sans-serif,-apple-system,Segoe UI,Roboto,sans-serif" width="760" height="218">
<defs>
<linearGradient id="g_entry" x1="0" y1="0" x2="0" y2="1"><stop offset="0" stop-color="#34d399"/><stop offset="1" stop-color="#059669"/></linearGradient>
<linearGradient id="g_exit" x1="0" y1="0" x2="0" y2="1"><stop offset="0" stop-color="#fb7185"/><stop offset="1" stop-color="#e11d48"/></linearGradient>
<linearGradient id="g_disp" x1="0" y1="0" x2="0" y2="1"><stop offset="0" stop-color="#fbbf24"/><stop offset="1" stop-color="#f59e0b"/></linearGradient>
<linearGradient id="g_inject" x1="0" y1="0" x2="0" y2="1"><stop offset="0" stop-color="#22d3ee"/><stop offset="1" stop-color="#0891b2"/></linearGradient>
<linearGradient id="g_keep" x1="0" y1="0" x2="0" y2="1"><stop offset="0" stop-color="#818cf8"/><stop offset="1" stop-color="#6366f1"/></linearGradient>
<marker id="arw" viewBox="0 0 10 10" refX="9" refY="5" markerWidth="7" markerHeight="7" orient="auto-start-reverse"><path d="M0,0 L10,5 L0,10 z" fill="var(--edge)"/></marker>
<marker id="arwb" viewBox="0 0 10 10" refX="9" refY="5" markerWidth="7" markerHeight="7" orient="auto-start-reverse"><path d="M0,0 L10,5 L0,10 z" fill="#f59e0b"/></marker>
<filter id="sh" x="-20%" y="-20%" width="140%" height="140%"><feDropShadow dx="0" dy="2" stdDeviation="2.4" flood-opacity="0.28"/></filter>
</defs>
<style>:root{--bg:#0d1117;--edge:#8b98a5;--fg:#e6edf3;--sub:#93a1b0;--card:#161b22;--cardln:#30363d;}@media (prefers-color-scheme: light){:root{--bg:#ffffff;--edge:#94a3b8;--fg:#1e293b;--sub:#64748b;--card:#f8fafc;--cardln:#e2e8f0;}}:root[data-theme='light']{--bg:#ffffff;--edge:#94a3b8;--fg:#1e293b;--sub:#64748b;--card:#f8fafc;--cardln:#e2e8f0;}:root[data-theme='dark']{--bg:#0d1117;--edge:#8b98a5;--fg:#e6edf3;--sub:#93a1b0;--card:#161b22;--cardln:#30363d;}.bt{font-weight:700;fill:#fff;}.bs{fill:#eef2ff;opacity:.85;}.ttl{fill:var(--fg);font-weight:800;}.sub{fill:var(--sub);}.lg{fill:var(--sub);}</style>
<rect x="0" y="0" width="760" height="218" rx="14" fill="var(--bg)"/>
<text class="ttl" x="40" y="46" font-size="26">After — code virtualisation</text>
<text class="sub" x="40" y="72" font-size="15">body → thin wrapper (real logic moves into __vm_engine bytecode)</text>
<rect x="652" y="30" width="12" height="12" rx="3" fill="#fb7185"/>
<text class="lg" x="669" y="40" font-size="12.5">return</text>
<rect x="556" y="30" width="12" height="12" rx="3" fill="#fbbf24"/>
<text class="lg" x="573" y="40" font-size="12.5">dispatcher</text>
<rect x="474" y="30" width="12" height="12" rx="3" fill="#22d3ee"/>
<text class="lg" x="491" y="40" font-size="12.5">injected</text>
<rect x="392" y="30" width="12" height="12" rx="3" fill="#818cf8"/>
<text class="lg" x="409" y="40" font-size="12.5">original</text>
<rect x="331" y="30" width="12" height="12" rx="3" fill="#34d399"/>
<text class="lg" x="348" y="40" font-size="12.5">entry</text>
<g filter="url(#sh)"><rect x="314.0" y="132.0" width="132" height="46" rx="11" fill="url(#g_entry)" stroke="#065f46" stroke-width="1.4"/><text class="bt" x="380.0" y="153.0" text-anchor="middle" font-size="13" dominant-baseline="middle">vm.entry</text>
<text class="bs" x="380.0" y="169.0" text-anchor="middle" font-size="10.5">insts 340</text>
</g>
</svg>