<svg xmlns="http://www.w3.org/2000/svg" viewBox="0 0 1088 1544" width="1088" height="1544" font-family="ui-sans-serif,-apple-system,Segoe UI,Roboto,sans-serif">
<defs>
<linearGradient id="g_entry" x1="0" y1="0" x2="0" y2="1"><stop offset="0" stop-color="#34d399"/><stop offset="1" stop-color="#059669"/></linearGradient>
<linearGradient id="g_exit" x1="0" y1="0" x2="0" y2="1"><stop offset="0" stop-color="#fb7185"/><stop offset="1" stop-color="#e11d48"/></linearGradient>
<linearGradient id="g_disp" x1="0" y1="0" x2="0" y2="1"><stop offset="0" stop-color="#fbbf24"/><stop offset="1" stop-color="#f59e0b"/></linearGradient>
<linearGradient id="g_inject" x1="0" y1="0" x2="0" y2="1"><stop offset="0" stop-color="#22d3ee"/><stop offset="1" stop-color="#0891b2"/></linearGradient>
<linearGradient id="g_keep" x1="0" y1="0" x2="0" y2="1"><stop offset="0" stop-color="#818cf8"/><stop offset="1" stop-color="#6366f1"/></linearGradient>
<marker id="arw" viewBox="0 0 10 10" refX="9" refY="5" markerWidth="7" markerHeight="7" orient="auto-start-reverse"><path d="M0,0 L10,5 L0,10 z" fill="var(--edge)"/></marker>
<marker id="arwb" viewBox="0 0 10 10" refX="9" refY="5" markerWidth="7" markerHeight="7" orient="auto-start-reverse"><path d="M0,0 L10,5 L0,10 z" fill="#f59e0b"/></marker>
<marker id="arwbig" viewBox="0 0 12 12" refX="10" refY="6" markerWidth="9" markerHeight="9" orient="auto"><path d="M0,0 L12,6 L0,12 z" fill="#8b5cf6"/></marker>
<filter id="sh" x="-20%" y="-20%" width="140%" height="140%"><feDropShadow dx="0" dy="2" stdDeviation="2.4" flood-opacity="0.28"/></filter>
</defs>
<style>:root{--bg:#0d1117;--edge:#8b98a5;--fg:#e6edf3;--sub:#93a1b0;--pl:#c9d4e0;}@media (prefers-color-scheme: light){:root{--bg:#ffffff;--edge:#94a3b8;--fg:#1e293b;--sub:#64748b;--pl:#334155;}}:root[data-theme='light']{--bg:#ffffff;--edge:#94a3b8;--fg:#1e293b;--sub:#64748b;--pl:#334155;}:root[data-theme='dark']{--bg:#0d1117;--edge:#8b98a5;--fg:#e6edf3;--sub:#93a1b0;--pl:#c9d4e0;}.bt{font-weight:700;fill:#fff;}.bs{fill:#eef2ff;opacity:.82;}.ttl{fill:var(--fg);font-weight:800;}.sub{fill:var(--sub);}.lg{fill:var(--sub);}.pl{fill:var(--pl);font-weight:700;}</style>
<rect x="0" y="0" width="1088" height="1544" rx="14" fill="var(--bg)"/>
<text class="ttl" x="40" y="44" font-size="25">Code virtualisation</text>
<rect x="980" y="86" width="12" height="12" rx="3" fill="#fb7185"/>
<text class="lg" x="997" y="96" font-size="12.5">return</text>
<rect x="886" y="86" width="12" height="12" rx="3" fill="#fbbf24"/>
<text class="lg" x="903" y="96" font-size="12.5">dispatcher</text>
<rect x="806" y="86" width="12" height="12" rx="3" fill="#22d3ee"/>
<text class="lg" x="823" y="96" font-size="12.5">injected</text>
<rect x="725" y="86" width="12" height="12" rx="3" fill="#818cf8"/>
<text class="lg" x="742" y="96" font-size="12.5">original</text>
<rect x="664" y="86" width="12" height="12" rx="3" fill="#34d399"/>
<text class="lg" x="681" y="96" font-size="12.5">entry</text>
<text class="pl" x="430" y="128" text-anchor="middle" font-size="15">Before · 18 blocks</text>
<text class="pl" x="982" y="128" text-anchor="middle" font-size="15">After · 1 wrapper</text>
<line x1="430.0" y1="184.0" x2="430.0" y2="258.0" stroke="var(--edge)" stroke-width="1.5" stroke-opacity="0.72" marker-end="url(#arw)"/>
<line x1="430.0" y1="184.0" x2="430.0" y2="378.0" stroke="var(--edge)" stroke-width="1.5" stroke-opacity="0.72" marker-end="url(#arw)"/>
<line x1="430.0" y1="304.0" x2="430.0" y2="378.0" stroke="var(--edge)" stroke-width="1.5" stroke-opacity="0.72" marker-end="url(#arw)"/>
<line x1="430.0" y1="424.0" x2="430.0" y2="498.0" stroke="var(--edge)" stroke-width="1.5" stroke-opacity="0.72" marker-end="url(#arw)"/>
<line x1="430.0" y1="424.0" x2="430.0" y2="618.0" stroke="var(--edge)" stroke-width="1.5" stroke-opacity="0.72" marker-end="url(#arw)"/>
<line x1="430.0" y1="544.0" x2="430.0" y2="618.0" stroke="var(--edge)" stroke-width="1.5" stroke-opacity="0.72" marker-end="url(#arw)"/>
<line x1="430.0" y1="664.0" x2="430.0" y2="738.0" stroke="var(--edge)" stroke-width="1.5" stroke-opacity="0.72" marker-end="url(#arw)"/>
<path d="M430.0,784.0 C430.0,821.0 470.5,846.2 511.0,858.0" fill="none" stroke="var(--edge)" stroke-width="1.5" stroke-opacity="0.72" marker-end="url(#arw)"/>
<path d="M430.0,784.0 C430.0,821.0 389.5,846.2 349.0,858.0" fill="none" stroke="var(--edge)" stroke-width="1.5" stroke-opacity="0.72" marker-end="url(#arw)"/>
<path d="M511.0,904.0 C511.0,941.0 632.5,966.2 754.0,978.0" fill="none" stroke="var(--edge)" stroke-width="1.5" stroke-opacity="0.72" marker-end="url(#arw)"/>
<line x1="511.0" y1="904.0" x2="511.0" y2="1098.0" stroke="var(--edge)" stroke-width="1.5" stroke-opacity="0.72" marker-end="url(#arw)"/>
<path d="M754.0,1024.0 C754.0,1061.0 632.5,1086.2 511.0,1098.0" fill="none" stroke="var(--edge)" stroke-width="1.5" stroke-opacity="0.72" marker-end="url(#arw)"/>
<path d="M511.0,1144.0 C511.0,1181.0 470.5,1206.2 430.0,1218.0" fill="none" stroke="var(--edge)" stroke-width="1.5" stroke-opacity="0.72" marker-end="url(#arw)"/>
<path d="M511.0,1144.0 C511.0,1241.0 470.5,1307.0 430.0,1338.0" fill="none" stroke="var(--edge)" stroke-width="1.5" stroke-opacity="0.72" marker-end="url(#arw)"/>
<line x1="430.0" y1="1264.0" x2="430.0" y2="1338.0" stroke="var(--edge)" stroke-width="1.5" stroke-opacity="0.72" marker-end="url(#arw)"/>
<line x1="430.0" y1="1384.0" x2="430.0" y2="1458.0" stroke="var(--edge)" stroke-width="1.5" stroke-opacity="0.72" marker-end="url(#arw)"/>
<path d="M349.0,904.0 C349.0,941.0 470.5,966.2 592.0,978.0" fill="none" stroke="var(--edge)" stroke-width="1.5" stroke-opacity="0.72" marker-end="url(#arw)"/>
<path d="M349.0,904.0 C349.0,941.0 227.5,966.2 106.0,978.0" fill="none" stroke="var(--edge)" stroke-width="1.5" stroke-opacity="0.72" marker-end="url(#arw)"/>
<path d="M349.0,904.0 C349.0,941.0 308.5,966.2 268.0,978.0" fill="none" stroke="var(--edge)" stroke-width="1.5" stroke-opacity="0.72" marker-end="url(#arw)"/>
<path d="M349.0,904.0 C349.0,941.0 389.5,966.2 430.0,978.0" fill="none" stroke="var(--edge)" stroke-width="1.5" stroke-opacity="0.72" marker-end="url(#arw)"/>
<path d="M106.0,1024.0 C106.0,1061.0 227.5,1086.2 349.0,1098.0" fill="none" stroke="var(--edge)" stroke-width="1.5" stroke-opacity="0.72" marker-end="url(#arw)"/>
<path d="M268.0,1024.0 C268.0,1061.0 308.5,1086.2 349.0,1098.0" fill="none" stroke="var(--edge)" stroke-width="1.5" stroke-opacity="0.72" marker-end="url(#arw)"/>
<path d="M430.0,1024.0 C430.0,1061.0 389.5,1086.2 349.0,1098.0" fill="none" stroke="var(--edge)" stroke-width="1.5" stroke-opacity="0.72" marker-end="url(#arw)"/>
<path d="M592.0,1024.0 C592.0,1061.0 470.5,1086.2 349.0,1098.0" fill="none" stroke="var(--edge)" stroke-width="1.5" stroke-opacity="0.72" marker-end="url(#arw)"/>
<path d="M430.0,1458.0 C488.0,1458.0 488.0,784.0 430.0,784.0" fill="none" stroke="#f59e0b" stroke-width="1.5" stroke-opacity="0.85" stroke-dasharray="5 3" marker-end="url(#arwb)"/>
<g filter="url(#sh)"><rect x="364.0" y="138.0" width="132" height="46" rx="11" fill="url(#g_entry)" stroke="#065f46" stroke-width="1.4"/><text class="bt" x="430.0" y="155.0" text-anchor="middle" font-size="12.5" dominant-baseline="middle">entry</text>
<text class="bs" x="430.0" y="175.0" text-anchor="middle" font-size="10">insts 44</text>
</g>
<g filter="url(#sh)"><rect x="364.0" y="258.0" width="132" height="46" rx="11" fill="url(#g_keep)" stroke="#3730a3" stroke-width="1.4"/><text class="bt" x="430.0" y="275.0" text-anchor="middle" font-size="12.5" dominant-baseline="middle">if.then</text>
<text class="bs" x="430.0" y="295.0" text-anchor="middle" font-size="10">insts 4</text>
</g>
<g filter="url(#sh)"><rect x="364.0" y="378.0" width="132" height="46" rx="11" fill="url(#g_keep)" stroke="#3730a3" stroke-width="1.4"/><text class="bt" x="430.0" y="395.0" text-anchor="middle" font-size="12.5" dominant-baseline="middle">if.end</text>
<text class="bs" x="430.0" y="415.0" text-anchor="middle" font-size="10">insts 7</text>
</g>
<g filter="url(#sh)"><rect x="364.0" y="498.0" width="132" height="46" rx="11" fill="url(#g_keep)" stroke="#3730a3" stroke-width="1.4"/><text class="bt" x="430.0" y="515.0" text-anchor="middle" font-size="12.5" dominant-baseline="middle">if.then11</text>
<text class="bs" x="430.0" y="535.0" text-anchor="middle" font-size="10">insts 5</text>
</g>
<g filter="url(#sh)"><rect x="364.0" y="618.0" width="132" height="46" rx="11" fill="url(#g_keep)" stroke="#3730a3" stroke-width="1.4"/><text class="bt" x="430.0" y="635.0" text-anchor="middle" font-size="12.5" dominant-baseline="middle">if.end12</text>
<text class="bs" x="430.0" y="655.0" text-anchor="middle" font-size="10">insts 16</text>
</g>
<g filter="url(#sh)"><rect x="364.0" y="738.0" width="132" height="46" rx="11" fill="url(#g_keep)" stroke="#3730a3" stroke-width="1.4"/><text class="bt" x="430.0" y="755.0" text-anchor="middle" font-size="12.5" dominant-baseline="middle">for.cond</text>
<text class="bs" x="430.0" y="775.0" text-anchor="middle" font-size="10">insts 3</text>
</g>
<g filter="url(#sh)"><rect x="445.0" y="858.0" width="132" height="46" rx="11" fill="url(#g_keep)" stroke="#3730a3" stroke-width="1.4"/><text class="bt" x="511.0" y="875.0" text-anchor="middle" font-size="12.5" dominant-baseline="middle">for.body</text>
<text class="bs" x="511.0" y="895.0" text-anchor="middle" font-size="10">insts 12</text>
</g>
<g filter="url(#sh)"><rect x="688.0" y="978.0" width="132" height="46" rx="11" fill="url(#g_keep)" stroke="#3730a3" stroke-width="1.4"/><text class="bt" x="754.0" y="995.0" text-anchor="middle" font-size="12.5" dominant-baseline="middle">if.then24</text>
<text class="bs" x="754.0" y="1015.0" text-anchor="middle" font-size="10">insts 5</text>
</g>
<g filter="url(#sh)"><rect x="445.0" y="1098.0" width="132" height="46" rx="11" fill="url(#g_keep)" stroke="#3730a3" stroke-width="1.4"/><text class="bt" x="511.0" y="1115.0" text-anchor="middle" font-size="12.5" dominant-baseline="middle">if.end26</text>
<text class="bs" x="511.0" y="1135.0" text-anchor="middle" font-size="10">insts 7</text>
</g>
<g filter="url(#sh)"><rect x="364.0" y="1218.0" width="132" height="46" rx="11" fill="url(#g_keep)" stroke="#3730a3" stroke-width="1.4"/><text class="bt" x="430.0" y="1235.0" text-anchor="middle" font-size="12.5" dominant-baseline="middle">if.then30</text>
<text class="bs" x="430.0" y="1255.0" text-anchor="middle" font-size="10">insts 5</text>
</g>
<g filter="url(#sh)"><rect x="364.0" y="1338.0" width="132" height="46" rx="11" fill="url(#g_keep)" stroke="#3730a3" stroke-width="1.4"/><text class="bt" x="430.0" y="1355.0" text-anchor="middle" font-size="12.5" dominant-baseline="middle">if.end32</text>
<text class="bs" x="430.0" y="1375.0" text-anchor="middle" font-size="10">insts 1</text>
</g>
<g filter="url(#sh)"><rect x="364.0" y="1458.0" width="132" height="46" rx="11" fill="url(#g_keep)" stroke="#3730a3" stroke-width="1.4"/><text class="bt" x="430.0" y="1475.0" text-anchor="middle" font-size="12.5" dominant-baseline="middle">for.inc</text>
<text class="bs" x="430.0" y="1495.0" text-anchor="middle" font-size="10">insts 4</text>
</g>
<g filter="url(#sh)"><rect x="276.0" y="856.0" width="146" height="50" rx="11" fill="url(#g_disp)" stroke="#92400e" stroke-width="1.4"/><text class="bt" x="349.0" y="875.0" text-anchor="middle" font-size="12.5" dominant-baseline="middle">for.end</text>
<text class="bs" x="349.0" y="897.0" text-anchor="middle" font-size="10">insts 24</text>
</g>
<g filter="url(#sh)"><rect x="40.0" y="978.0" width="132" height="46" rx="11" fill="url(#g_keep)" stroke="#3730a3" stroke-width="1.4"/><text class="bt" x="106.0" y="995.0" text-anchor="middle" font-size="12.5" dominant-baseline="middle">sw.bb</text>
<text class="bs" x="106.0" y="1015.0" text-anchor="middle" font-size="10">insts 4</text>
</g>
<g filter="url(#sh)"><rect x="202.0" y="978.0" width="132" height="46" rx="11" fill="url(#g_keep)" stroke="#3730a3" stroke-width="1.4"/><text class="bt" x="268.0" y="995.0" text-anchor="middle" font-size="12.5" dominant-baseline="middle">sw.bb45</text>
<text class="bs" x="268.0" y="1015.0" text-anchor="middle" font-size="10">insts 4</text>
</g>
<g filter="url(#sh)"><rect x="364.0" y="978.0" width="132" height="46" rx="11" fill="url(#g_keep)" stroke="#3730a3" stroke-width="1.4"/><text class="bt" x="430.0" y="995.0" text-anchor="middle" font-size="12.5" dominant-baseline="middle">sw.bb47</text>
<text class="bs" x="430.0" y="1015.0" text-anchor="middle" font-size="10">insts 4</text>
</g>
<g filter="url(#sh)"><rect x="526.0" y="978.0" width="132" height="46" rx="11" fill="url(#g_keep)" stroke="#3730a3" stroke-width="1.4"/><text class="bt" x="592.0" y="995.0" text-anchor="middle" font-size="12.5" dominant-baseline="middle">sw.default</text>
<text class="bs" x="592.0" y="1015.0" text-anchor="middle" font-size="10">insts 4</text>
</g>
<g filter="url(#sh)"><rect x="283.0" y="1098.0" width="132" height="46" rx="11" fill="url(#g_exit)" stroke="#881337" stroke-width="1.4"/><text class="bt" x="349.0" y="1115.0" text-anchor="middle" font-size="12.5" dominant-baseline="middle">sw.epilog</text>
<text class="bs" x="349.0" y="1135.0" text-anchor="middle" font-size="10">insts 2</text>
</g>
<g filter="url(#sh)"><rect x="916.0" y="138.0" width="132" height="46" rx="11" fill="url(#g_entry)" stroke="#065f46" stroke-width="1.4"/><text class="bt" x="982.0" y="155.0" text-anchor="middle" font-size="12.5" dominant-baseline="middle">vm.entry</text>
<text class="bs" x="982.0" y="175.0" text-anchor="middle" font-size="10">insts 340</text>
</g>
<line x1="840" y1="161" x2="896" y2="161" stroke="#8b5cf6" stroke-width="3.5" marker-end="url(#arwbig)"/>
<text x="868" y="149" text-anchor="middle" fill="#8b5cf6" font-weight="700" font-size="12.5">obfuscate</text>
</svg>